Coordinates
version=1
nRows=24
nColumns=22
inDegrees=yes

Units are S.I. units (second, meters, Newtons, ...)
If the header above contains a line with 'inDegrees', this indicates whether rotational values are in degrees (yes) or radians (no).

endheader
time	pelvis_tilt	pelvis_list	pelvis_rotation	pelvis_tx	pelvis_ty	pelvis_tz	hip_flexion_r	hip_adduction_r	hip_rotation_r	knee_angle_r	ankle_angle_r	subtalar_angle_r	hip_flexion_l	hip_adduction_l	hip_rotation_l	knee_angle_l	ankle_angle_l	subtalar_angle_l	lumbar_extension	lumbar_bending	lumbar_rotation
      5.73000000	     -1.83576282	     -6.11267341	    279.71974314	     -0.52446502	      0.92929659	      0.50203365	     17.38740058	     -5.12934020	     -0.63361102	    -63.71286382	     -5.43982478	     10.86886440	      1.09335105	      6.56661929	     -6.26567715	    -20.19904960	      8.86558686	    -13.57705794	     -8.66276280	     -2.00147007	      2.35184948
      5.74000000	     -1.71042289	     -6.19693676	    281.13646542	     -0.52179881	      0.92952382	      0.50876751	     17.97674410	     -5.13119664	     -0.75441819	    -62.19086952	     -4.46551867	     10.26893523	      0.34151696	      6.65124021	     -5.15125799	    -19.93076657	      9.26527073	    -13.07849106	     -8.81642532	     -1.99881498	      2.00105723
      5.75000000	     -1.59135902	     -6.28535017	    282.46152613	     -0.51934644	      0.92969304	      0.51547738	     18.51263875	     -5.05879953	     -0.74899250	    -60.51652368	     -3.51909377	      9.49959668	     -0.38589063	      6.67388671	     -4.22850029	    -19.70587095	      9.82983424	    -12.32754426	     -8.97565728	     -2.00847211	      1.72995628
      5.76000000	     -1.49162578	     -6.31093001	    283.76337520	     -0.51695488	      0.92973094	      0.52211388	     19.06470786	     -4.94812990	     -0.68473893	    -58.69810035	     -2.75159631	      8.91444427	     -1.01528695	      6.66537184	     -3.32029858	    -19.51673693	     10.41110505	    -11.56071443	     -9.06430755	     -2.01636682	      1.47233484
      5.77000000	     -1.39837923	     -6.27998107	    285.03466256	     -0.51462528	      0.92962832	      0.52866716	     19.63050403	     -4.80995885	     -0.53931011	    -56.75881463	     -2.12474888	      8.45239459	     -1.55368411	      6.65388447	     -2.39181839	    -19.37921972	     10.93967566	    -10.92919001	     -9.09738894	     -2.03909860	      1.23338209
      5.78000000	     -1.29598421	     -6.18703895	    286.25769754	     -0.51233674	      0.92936756	      0.53519431	     20.21612375	     -4.67332791	     -0.31453342	    -54.72026794	     -1.60199079	      8.09267835	     -2.02885376	      6.67408325	     -1.44079896	    -19.25999570	     11.34725068	    -10.62441253	     -9.06368183	     -2.09670126	      1.01524481
      5.79000000	     -1.17333760	     -6.05412047	    287.44630204	     -0.51006284	      0.92896676	      0.54163640	     20.79867530	     -4.54870366	     -0.01271905	    -52.60019185	     -1.18230915	      7.78626341	     -2.45925899	      6.74750164	     -0.37630521	    -19.18803576	     11.56395226	    -10.77687957	     -9.00377028	     -2.19296351	      0.83073121
      5.80000000	     -1.03938427	     -5.87777677	    288.61833254	     -0.50774501	      0.92844061	      0.54802839	     21.37123967	     -4.44824718	      0.32300469	    -50.39569041	     -0.88535873	      7.60248489	     -2.85860946	      6.86488595	      0.78753724	    -19.13311520	     11.58537180	    -11.42795157	     -8.90545165	     -2.31471861	      0.62302594
      5.81000000	     -0.89804895	     -5.68251976	    289.77945933	     -0.50538787	      0.92781642	      0.55434905	     21.90575192	     -4.36767930	      0.66862267	    -48.10972987	     -0.69514392	      7.53704734	     -3.22891330	      7.00575226	      2.00844808	    -19.13027253	     11.50128153	    -12.33979950	     -8.80046805	     -2.45317030	      0.44059281
      5.82000000	     -0.75416260	     -5.47989212	    290.93657379	     -0.50297977	      0.92713805	      0.56063993	     22.37971708	     -4.30312382	      1.00702439	    -45.73438441	     -0.62281288	      7.57240279	     -3.59106079	      7.14248872	      3.20683327	    -19.14683664	     11.39348105	    -13.23343081	     -8.69317553	     -2.59769518	      0.23600825
      5.83000000	     -0.61062001	     -5.28118630	    292.08939695	     -0.50053127	      0.92642667	      0.56691125	     22.77699753	     -4.25108548	      1.31972862	    -43.26705490	     -0.63342851	      7.68999219	     -3.94925361	      7.25804173	      4.34312752	    -19.18494167	     11.33523132	    -13.96774801	     -8.59405856	     -2.74442707	      0.03013855
      5.84000000	     -0.46488016	     -5.08221016	    293.24148115	     -0.49802711	      0.92568401	      0.57317295	     23.09642026	     -4.21976437	      1.60109532	    -40.70716163	     -0.71535324	      7.87365406	     -4.30577748	      7.35159374	      5.40546448	    -19.22944583	     11.35675092	    -14.49340366	     -8.49779932	     -2.89425331	     -0.20548368
      5.85000000	     -0.32257493	     -4.86516097	    294.40040030	     -0.49547147	      0.92488301	      0.57938305	     23.36401189	     -4.22234819	      1.82165264	    -38.06360667	     -0.87025815	      8.06953051	     -4.62696148	      7.42640583	      6.43339641	    -19.30353861	     11.45028081	    -14.77706709	     -8.39024761	     -3.05153662	     -0.43224270
      5.86000000	     -0.17082385	     -4.66879890	    295.55022976	     -0.49283810	      0.92410917	      0.58563957	     23.51150144	     -4.24460896	      2.01449927	    -35.31242185	     -0.98369107	      8.40409453	     -4.99513013	      7.47397960	      7.38491565	    -19.34084394	     11.58728363	    -15.02210004	     -8.30157422	     -3.20871092	     -0.69467387
      5.87000000	     -0.02336115	     -4.43309304	    296.70536761	     -0.49014886	      0.92325717	      0.59183451	     23.63258914	     -4.31446636	      2.13574768	    -32.49379140	     -1.15396206	      8.71565634	     -5.30252424	      7.51784515	      8.33844064	    -19.41974629	     11.75524228	    -15.10424925	     -8.17991704	     -3.38365052	     -0.93450627
      5.88000000	      0.13614227	     -4.21658530	    297.83931106	     -0.48739806	      0.92244558	      0.59809060	     23.63544217	     -4.40073087	      2.24616229	    -29.57942008	     -1.26345315	      9.21559479	     -5.66472782	      7.53812249	      9.23657984	    -19.44866957	     11.91322142	    -15.11120779	     -8.07640455	     -3.56282376	     -1.19324382
      5.89000000	      0.29276556	     -3.93883409	    298.98225246	     -0.48457893	      0.92153439	      0.60429922	     23.63462550	     -4.54512213	      2.29556986	    -26.62633252	     -1.37855879	      9.63129856	     -5.95057101	      7.57030835	     10.13107671	    -19.51460107	     12.07706864	    -15.04748971	     -7.91679316	     -3.77364483	     -1.48055959
      5.90000000	      0.44995374	     -3.62246868	    300.11752519	     -0.48169041	      0.92056078	      0.61047124	     23.60974603	     -4.73229258	      2.30388579	    -23.64991930	     -1.49048528	     10.00423072	     -6.19400859	      7.61700839	     11.03943606	    -19.60362685	     12.21681940	    -14.96724036	     -7.72618905	     -4.00795495	     -1.73786897
      5.91000000	      0.62383635	     -3.34117655	    301.22818925	     -0.47873859	      0.91964636	      0.61674708	     23.46503036	     -4.92235007	      2.31191467	    -20.65071648	     -1.50073090	     10.59858333	     -6.51440703	      7.63856080	     11.88048828	    -19.64124010	     12.33248655	    -14.81918012	     -7.57148832	     -4.24457986	     -2.03462983
      5.92000000	      0.79094542	     -3.01379747	    302.34201506	     -0.47572072	      0.91864037	      0.62299639	     23.33019277	     -5.14860234	      2.26788727	    -17.70896139	     -1.52215926	     11.11512892	     -6.76990365	      7.67589794	     12.72817729	    -19.72970576	     12.43330464	    -14.69203079	     -7.37650238	     -4.50509348	     -2.32857997
      5.93000000	      0.95538901	     -2.69939071	    303.42919266	     -0.47267230	      0.91762666	      0.62932806	     23.15341433	     -5.36271146	      2.22267356	    -14.86081938	     -1.52637913	     11.75611527	     -7.04812052	      7.69418777	     13.54245555	    -19.81394618	     12.51552932	    -14.54746230	     -7.19220171	     -4.76720765	     -2.60722725
      5.94000000	      1.11501078	     -2.39334032	    304.48622808	     -0.46960242	      0.91658592	      0.63574558	     22.96222269	     -5.56125825	      2.20221056	    -12.16882536	     -1.53062066	     12.51541232	     -7.33613324	      7.69591510	     14.31292812	    -19.90894115	     12.58944896	    -14.39848817	     -7.01414098	     -5.03061824	     -2.86781105
      5.95000000	      1.26737791	     -2.09475064	    305.51676971	     -0.46649345	      0.91551054	      0.64222038	     22.78295497	     -5.74688729	      2.21874291	     -9.70235170	     -1.54151224	     13.34769489	     -7.62694388	      7.68358156	     15.04310177	    -20.02100344	     12.65722847	    -14.25871333	     -6.84368146	     -5.28707066	     -3.11411783
      5.96000000	      1.41937931	     -1.81456274	    306.49318207	     -0.46338611	      0.91441409	      0.64877081	     22.62504036	     -5.90899801	      2.35344464	     -7.52208455	     -1.55493539	     14.26845539	     -7.93118095	      7.66066148	     15.71055152	    -20.15367928	     12.72830696	    -14.12087584	     -6.69695999	     -5.53938613	     -3.30901400
